<?xml version="1.0" encoding="UTF-8" standalone="no"?>
<!-- Generator: Adobe Illustrator 23.0.1, SVG Export Plug-In . SVG Version: 6.00 Build 0)  -->

<svg
   version="1.1"
   id="Layer_1"
   x="0px"
   y="0px"
   viewBox="0 0 837.67317 1080"
   xml:space="preserve"
   sodipodi:docname="escudo-nl2.svg"
   width="837.67316"
   height="1080"
   inkscape:version="1.1 (c68e22c387, 2021-05-23)"
   xmlns:inkscape="http://www.inkscape.org/namespaces/inkscape"
   xmlns:sodipodi="http://sodipodi.sourceforge.net/DTD/sodipodi-0.dtd"
   xmlns="http://www.w3.org/2000/svg"
   xmlns:svg="http://www.w3.org/2000/svg"><defs
   id="defs119" /><sodipodi:namedview
   id="namedview117"
   pagecolor="#ffffff"
   bordercolor="#666666"
   borderopacity="1.0"
   inkscape:pageshadow="2"
   inkscape:pageopacity="0.0"
   inkscape:pagecheckerboard="0"
   showgrid="false"
   fit-margin-top="0"
   fit-margin-left="0"
   fit-margin-right="0"
   fit-margin-bottom="0"
   inkscape:zoom="0.21536145"
   inkscape:cx="-99.832168"
   inkscape:cy="1386.042"
   inkscape:window-width="1920"
   inkscape:window-height="1017"
   inkscape:window-x="-8"
   inkscape:window-y="394"
   inkscape:window-maximized="1"
   inkscape:current-layer="Layer_1" />
<style
   type="text/css"
   id="style2">
	.st0{fill:#FFFFFF;}
</style>
<g
   id="g114"
   style="fill:#ae8b53;fill-opacity:1"
   transform="matrix(9.9722992,0,0,9.9722992,-79.778394,-9.9722992)">
	<g
   id="g52"
   style="fill:#ae8b53;fill-opacity:1">
		<g
   id="g6"
   style="fill:#ae8b53;fill-opacity:1">
			<path
   class="st0"
   d="m 47.2,19.2 0.2,0.2 c 0.1,0.1 0.2,0.1 0.2,0.1 l 0.3,-0.1 0.7,-0.2 0.7,1.2 0.5,0.9 c 0.1,0.1 0.2,0.1 0.3,0 l 0.5,-0.9 0.7,-1.2 0.7,0.2 0.3,0.1 c 0.1,0 0.2,0 0.2,-0.1 l 0.2,-0.2 0.6,-0.6 c 0.2,-0.2 0.3,-0.6 0.2,-0.9 L 53.3,17.2 H 52.8 51.3 51 v 0 l -0.5,-0.8 c -0.1,-0.1 -0.2,-0.2 -0.4,-0.2 -0.2,0 -0.3,0.1 -0.4,0.2 L 49,17.3 v 0 h -0.3 -1.5 -0.5 l -0.2,0.5 c -0.1,0.3 -0.1,0.7 0.2,0.9 z M 51.3,18 c 0,0 0.1,-0.1 0.1,-0.1 H 53 c 0.1,0 0.1,0 0.1,0.1 0,0.1 0,0.1 0,0.2 l -0.6,0.6 c 0,0 -0.1,0 -0.1,0 0,0 0,0 0,0 l -0.8,-0.2 c 0,0 -0.1,0 -0.1,-0.1 l -0.2,-0.3 c 0,-0.1 0,-0.2 0,-0.2 z m -2.2,0.6 0.4,-0.6 c 0,0 0.1,-0.1 0.1,-0.1 h 0.7 c 0,0 0.1,0 0.1,0.1 l 0.4,0.6 c 0,0 0,0.1 0,0.1 L 50.1,20 c 0,0 -0.1,0.1 -0.1,0.1 0,0 -0.1,0 -0.1,-0.1 l -0.7,-1.3 c -0.1,0 -0.1,0 -0.1,-0.1 z M 46.9,18 c 0,-0.1 0.1,-0.1 0.1,-0.1 h 1.5 c 0,0 0.1,0 0.1,0.1 0,0 0,0.1 0,0.1 l -0.2,0.3 c 0,0 0,0.1 -0.1,0.1 l -0.8,0.2 c 0,0 0,0 0,0 0,0 -0.1,0 -0.1,0 l -0.6,-0.6 c 0.1,0 0.1,0 0.1,-0.1 z"
   id="path4"
   style="fill:#ae8b53;fill-opacity:1" />
		</g>
		<g
   id="g14"
   style="fill:#ae8b53;fill-opacity:1">
			<path
   class="st0"
   d="M 55.6,27.8 V 27.6 H 54 c -0.3,0 -0.6,0.3 -0.6,0.6 v 0.2 h 1.5 c 0.4,0 0.7,-0.3 0.7,-0.6 z"
   id="path8"
   style="fill:#ae8b53;fill-opacity:1" />
			<path
   class="st0"
   d="m 65.4,27.2 h -0.2 -0.1 c 0,0 0,0 0,0 -0.5,0 -1.1,0.2 -1.4,0.6 -0.4,0.4 -0.6,0.9 -0.6,1.4 0,0.5 0.2,1.1 0.6,1.4 l 0.1,0.1 c 0.5,0.5 0.5,1.2 0,1.7 l -0.1,0.1 -1.4,-1 0.4,-0.3 V 27.6 C 62.7,27 62.5,26.4 62,26 61.5,25.6 61,25.3 60.4,25.3 h -2.3 v 0 h -0.7 c -0.1,0 -0.2,0.2 -0.1,0.3 l 0.3,0.4 -1.4,0.5 c -0.2,0.1 -0.3,0.2 -0.3,0.4 v 1.6 c 0,0.1 0,0.2 0.1,0.3 l 0.4,0.4 c 0.1,0.1 0.2,0.1 0.3,0.1 h 0.7 l -0.1,0.1 c -0.1,0.1 -0.2,0.2 -0.3,0.3 h -1 v 0 C 55.6,29.1 55,28.9 54.4,28.9 H 53.5 V 30 c 0,0.2 0.1,0.4 0.2,0.5 l 0.8,1 c 0,0 0,0 -0.1,0 h -0.9 v 1.2 c 0,0.2 0.1,0.4 0.2,0.5 l 1,1.3 c 0.1,0.2 0.3,0.3 0.5,0.3 H 57 c -0.1,0.2 -0.1,0.3 -0.1,0.5 V 36 l 0.6,0.5 c 0,0 0,0 0,0 L 57,36.9 h -0.7 c -0.7,0 -1.3,0.6 -1.3,1.3 v 1.1 h 3.4 l 2.6,-2.8 0.7,0.4 h -0.2 c -0.7,0 -1.3,0.6 -1.3,1.3 v 1.1 h 3 l 1.9,-1.5 v 0 c 0.2,-0.2 0.3,-0.4 0.3,-0.6 0,-0.2 -0.1,-0.4 -0.2,-0.6 l -1.1,-1.3 v -1.8 l 0.3,-0.3 c 0.8,-0.8 0.8,-2.1 0,-2.9 L 64.3,30.2 C 64.1,30 64,29.7 64,29.4 c 0,-0.3 0.1,-0.6 0.4,-0.8 0.2,-0.2 0.5,-0.3 0.8,-0.3 0,0 0,0 0,0 h 0.1 v 0.6 c 0,0.3 0.3,0.6 0.6,0.6 H 66 v -1.4 c 0,-0.6 -0.2,-0.9 -0.6,-0.9 z m -5,-0.9 c 0.4,0 0.7,0.2 1,0.4 0.3,0.3 0.4,0.6 0.4,1 v 3.2 l -2.1,1.6 -1.5,-1 -0.2,-0.1 c -0.2,-0.1 -0.3,-0.3 -0.3,-0.5 0,-0.2 0.1,-0.4 0.2,-0.6 l 0.4,-0.3 1.2,-1 v 0 c 0.1,-0.1 0.2,-0.3 0.2,-0.4 v -1 c 0,-0.2 -0.1,-0.3 -0.2,-0.4 l -0.6,-0.7 h 1.5 z m -3.5,2.4 -0.2,-0.2 v -1.1 l 1.4,-0.6 0.6,0.7 v 0.8 l -0.4,0.4 z m 0.5,3.5 -0.4,0.4 h -1 v -0.1 c -0.1,-0.1 -0.2,-0.2 -0.3,-0.3 z m -3.1,-2.1 v -0.3 h 0.1 c 0.4,0 0.6,0.2 0.9,0.5 l 0.3,0.4 h 1.3 c 0,0.1 0,0.1 0,0.2 0,0.1 0.1,0.3 0.1,0.4 h -1.7 z m 3.8,8.4 h -2.2 v -0.3 c 0,-0.2 0.2,-0.4 0.4,-0.4 h 0.9 l 0.7,-0.5 v 0 c 0.3,-0.3 0.3,-0.9 0,-1.2 l -0.3,-0.3 v -0.3 c 0,-0.3 0.2,-0.5 0.5,-0.5 h 0.2 0.7 v 0 h 0.9 l 0.4,0.3 v 0.4 c 0,0.1 0,0.3 0.1,0.4 z m 6.4,-1.4 v 0 c 0.1,0 0.1,0 0,0 0.1,0 0.1,0 0,0 l -1.6,1.4 h -1.8 v -0.3 c 0,-0.2 0.2,-0.4 0.4,-0.4 h 1.1 l 0.1,-0.1 c 0.2,-0.2 0.2,-0.4 0.2,-0.6 0,-0.2 -0.1,-0.4 -0.3,-0.5 L 61,35.6 V 34.9 L 60.3,34.3 C 60.2,34.2 60,34.1 59.8,34.1 L 59,34 v 0 h -3.8 l -1,-1.2 v -0.3 h 0.1 c 0.4,0 0.7,0.2 1,0.5 l 0.3,0.4 h 1.8 l 0.9,-0.9 1.6,1 1.8,-1.4 1.7,1.2 v 1.9 c 0,0.2 0.1,0.4 0.2,0.5 z"
   id="path10"
   style="fill:#ae8b53;fill-opacity:1" />
			<path
   class="st0"
   d="M 58.5,25.1 H 61 c 0.1,0 0.2,-0.1 0.2,-0.2 v -1.1 c 0,-0.1 0,-0.1 -0.1,-0.1 0,0 -0.1,0 -0.1,0 l -0.6,0.5 -0.5,-0.5 c -0.1,-0.1 -0.1,-0.1 -0.2,0 l -0.6,0.5 -0.6,-0.5 c 0,0 -0.1,0 -0.1,0 0,0 -0.1,0.1 -0.1,0.1 v 1.1 c 0,0.1 0.1,0.2 0.2,0.2 z"
   id="path12"
   style="fill:#ae8b53;fill-opacity:1" />
		</g>
		<g
   id="g18"
   style="fill:#ae8b53;fill-opacity:1">
			<path
   class="st0"
   d="m 58.3,15.9 v 0 h -1.8 c -1.4,0 -2.5,-1 -2.7,-2.4 L 53.7,12.4 53.8,12 c 1,-0.7 1.5,-1.8 1.5,-2.7 C 55.3,8.7 55,7.9 54.5,7.3 54.2,5.6 53,4.2 51.5,3.7 51.3,2.9 51,2.1 50.4,1.5 L 50,1 49.6,1.5 c -0.5,0.6 -0.9,1.4 -1.1,2.2 -1.6,0.5 -2.8,1.9 -3.1,3.7 -0.5,0.6 -0.8,1.3 -0.8,2 0,0.9 0.6,2.1 1.6,2.8 v 0.1 c 0,0 0,0 0,0.1 L 46,13.7 c -0.2,1.4 -1.4,2.4 -2.7,2.4 h -1.8 v 0 H 23.4 v 0.4 c 0,0.3 0.2,0.7 0.6,0.8 0.9,0.2 1.5,1 1.5,2 v 37.3 c 0,5 3.4,9.2 8.6,10.3 l 5.6,1.2 c 4.8,1.1 8.7,2.8 9.7,3.4 l 0.2,0.1 c 0.3,0.2 0.7,0.2 1.1,0 l 0.2,-0.1 c 1,-0.5 4.8,-2.3 9.7,-3.4 l 5.6,-1.2 c 5.1,-1.1 8.6,-5.3 8.6,-10.3 V 19.3 c 0,-1 0.6,-1.7 1.5,-2 0.3,-0.1 0.6,-0.4 0.6,-0.8 V 16.1 H 58.3 Z M 53.1,7.5 c 0.6,0.4 1.1,1.1 1.1,1.8 0,0.7 -0.5,1.4 -1.1,1.8 z M 50,4.5 c 1.2,0 2.3,0.7 3,1.7 -0.1,0 -0.2,-0.1 -0.3,-0.1 L 50.4,5.5 c -0.2,-0.1 -0.5,-0.1 -0.7,0 l -2.3,0.6 c -0.1,0 -0.2,0.1 -0.3,0.1 0.6,-1 1.7,-1.7 2.9,-1.7 z m -0.4,8.7 c 0.1,0 0.2,0 0.3,0 0.1,0 0.2,0 0.3,0 l 2.1,-0.6 C 51.9,13.5 51,14 50,14 49,14 48.1,13.4 47.7,12.6 Z M 48.1,11.6 V 7.1 L 49.5,6.7 V 12 Z m 2.5,0.3 V 6.7 L 52,7.1 v 4.5 z M 45.8,9.3 c 0,-0.7 0.5,-1.4 1.1,-1.8 v 3.6 c -0.6,-0.4 -1.1,-1 -1.1,-1.8 z M 43.5,17 c 1.8,0 3.4,-1.3 3.8,-3.1 0.7,0.8 1.7,1.2 2.8,1.2 1.1,0 2,-0.4 2.8,-1.2 0.4,1.8 2,3 3.8,3 H 59 c -0.1,1.3 -1.2,2.3 -2.6,2.3 -0.2,0 -0.4,0 -0.6,-0.1 L 55.4,19 55.2,19.4 c -1.2,2 -3.2,3.2 -5.2,3.2 -2.1,0 -4,-1.2 -5.2,-3.1 l -0.2,-0.4 -0.4,0.1 c -0.2,0 -0.4,0.1 -0.6,0.1 -1.4,0 -2.5,-1 -2.6,-2.3 z m 8.8,26.2 v 0 c -0.1,0 -0.2,0 -0.3,0 l -0.7,-0.7 c 0,-0.1 0,-0.1 0,-0.2 v -1 c 0,-0.5 -0.4,-0.9 -0.9,-0.9 h -0.9 c -0.1,0 -0.2,0 -0.3,0 l -0.7,-0.7 c 0,-0.1 0,-0.1 0,-0.2 v -0.1 h 3.8 z m 0.9,0.8 c 0.1,0 0.1,0 0,0 v 1 c 0,0 0,0 0,0 h -0.9 c 0,0 0,0 0,0 v -1 c 0,0 0,0 0,0 z m -5.6,0.1 v -3.8 0 c 0.1,0 0.2,0 0.3,0 l 0.7,0.7 c 0,0.1 0,0.1 0,0.2 v 1 c 0,0.5 0.4,0.9 0.9,0.9 h 0.9 c 0.1,0 0.2,0 0.3,0 l 0.7,0.7 c 0,0.1 0,0.1 0,0.2 v 0.1 z m -0.9,-4.6 c 0,0 0,0 0,0 v -1 c 0,0 0,0 0,0 h 0.9 c 0,0 0,0 0,0 v 1 c 0,0 0,0 0,0 z m 2.8,2.7 v -1 c 0,0 0,0 0,0 h 0.9 c 0,0 0,0 0,0 v 1 c 0,0 0,0 0,0 h -0.9 c 0,0.1 0,0 0,0 z m 0,-3.7 h -1 v -0.1 c 0,-0.5 -0.4,-0.9 -0.9,-0.9 h -0.9 c -0.5,0 -0.9,0.4 -0.9,0.9 v 1 c 0,0.5 0.4,0.9 0.9,0.9 v 0 0.9 H 31.2 V 21.9 c 0,-0.2 0.2,-0.4 0.4,-0.4 h 13.3 c 0.3,0.3 0.7,0.7 0.9,0.9 1.1,0.8 2.4,1.3 3.7,1.4 z m -2.7,3.7 v 2.3 c 0,0.2 0.2,0.4 0.4,0.4 h 2.3 v 20.7 c -1.4,-0.7 -4.3,-2.1 -7.7,-2.9 l -6.6,-1.5 c -2.4,-0.5 -4,-2.6 -4,-5 v -14 z m 3.7,2.8 h 0.9 v 0 c 0,0.5 0.4,0.9 0.9,0.9 h 0.9 c 0.5,0 0.9,-0.4 0.9,-0.9 v -1 c 0,-0.5 -0.4,-0.9 -0.9,-0.9 v 0 -0.9 H 68.8 V 56 c 0,2.6 -1.8,4.8 -4.3,5.3 l -6.4,1.4 c -3.3,0.7 -6.2,2.1 -7.6,2.8 z m 2.7,-3.8 V 39 c 0,-0.2 -0.2,-0.4 -0.4,-0.4 H 50.5 V 23.7 c 1.3,-0.1 2.6,-0.6 3.6,-1.4 0.3,-0.2 0.7,-0.6 1,-0.9 h 13.3 c 0.2,0 0.4,0.2 0.4,0.4 V 41.2 Z M 73.4,19.1 v 37.3 c 0,4.5 -3.1,8.2 -7.7,9.2 l -5.6,1.2 c -4.4,1 -8.5,2.7 -10,3.5 L 50,70.4 49.8,70.3 c -1.5,-0.8 -5.5,-2.5 -10,-3.5 l -5.6,-1.2 c -4.6,-1 -7.7,-4.7 -7.7,-9.2 V 19.1 c 0,-0.8 -0.3,-1.5 -0.7,-2.1 h 14 c 0.1,1.7 1.4,3.1 3.1,3.4 H 30.5 c -0.2,0 -0.4,0.2 -0.4,0.4 v 35.5 c 0,2.9 2,5.4 4.8,6 l 6.6,1.5 c 3.7,0.8 6.9,2.5 7.8,3 l 0.6,0.3 0.6,-0.3 c 0.9,-0.5 4.1,-2.2 7.8,-3 l 6.4,-1.4 c 3,-0.7 5.1,-3.3 5.1,-6.3 V 20.8 c 0,-0.2 -0.2,-0.4 -0.4,-0.4 H 57 c 1.8,-0.3 3.1,-1.6 3.1,-3.4 h 14 c -0.4,0.6 -0.7,1.3 -0.7,2.1 z"
   id="path16"
   style="fill:#ae8b53;fill-opacity:1" />
		</g>
		<path
   class="st0"
   d="m 46.7,27.8 -1.3,-1.7 c -0.1,-0.2 -0.3,-0.3 -0.6,-0.3 -0.2,0 -0.4,0.1 -0.6,0.4 l -0.7,1.3 c 0,0 -0.1,0 -0.1,0 h -0.5 v -1.6 c 0,-0.3 -0.2,-0.5 -0.4,-0.6 -0.2,-0.1 -0.5,-0.1 -0.7,0.1 L 39.7,27 38,25.7 c -0.3,-0.2 -0.7,-0.2 -0.9,0 l -2.8,2.2 C 34.1,28 34,28.2 34,28.5 c 0,0.2 0,0.4 0.2,0.6 0,0 0.1,0 0.1,0 0,0 0,0 0.1,0 l 2.3,-1.8 c 0,0 0,0 0,0 l 1,-0.7 1.4,1.1 c -0.2,0.1 -0.3,0.3 -0.3,0.5 0,0.2 0,0.4 0.2,0.6 0,0 0,0 0.1,0 0,0 0.1,0 0.1,0 L 40,28.2 c 0,0 0,0 0,0 l 2.4,-1.9 v 1.3 c 0,0.5 0.4,0.9 0.9,0.9 h 0.5 c 0.4,0 0.7,-0.2 0.9,-0.5 l 0.5,-0.9 1.5,2 c 0,0 0,0 0.1,0 0,0 0.1,0 0.1,0 0.2,-0.1 0.3,-0.3 0.3,-0.5 -0.3,-0.4 -0.3,-0.6 -0.5,-0.8 z"
   id="path20"
   style="fill:#ae8b53;fill-opacity:1" />
		<g
   id="g38"
   style="fill:#ae8b53;fill-opacity:1">
			<path
   class="st0"
   d="m 39.2,32.5 c -0.2,0 -0.3,0.1 -0.3,0.3 0,0.2 0.1,0.3 0.3,0.3 0.2,0 0.3,-0.1 0.3,-0.3 0,-0.2 -0.1,-0.3 -0.3,-0.3 z"
   id="path22"
   style="fill:#ae8b53;fill-opacity:1" />
			<path
   class="st0"
   d="m 39.9,33.6 c -0.2,0 -0.3,0.1 -0.3,0.3 0,0.2 0.1,0.3 0.3,0.3 0.2,0 0.3,-0.1 0.3,-0.3 0,-0.2 -0.1,-0.3 -0.3,-0.3 z"
   id="path24"
   style="fill:#ae8b53;fill-opacity:1" />
			<path
   class="st0"
   d="m 41.2,33.6 c -0.2,0 -0.3,0.1 -0.3,0.3 0,0.2 0.1,0.3 0.3,0.3 0.2,0 0.3,-0.1 0.3,-0.3 0,-0.2 -0.1,-0.3 -0.3,-0.3 z"
   id="path26"
   style="fill:#ae8b53;fill-opacity:1" />
			<path
   class="st0"
   d="m 39.9,32.1 c 0.2,0 0.3,-0.1 0.3,-0.3 0,-0.2 -0.1,-0.3 -0.3,-0.3 -0.2,0 -0.3,0.1 -0.3,0.3 0,0.1 0.1,0.3 0.3,0.3 z"
   id="path28"
   style="fill:#ae8b53;fill-opacity:1" />
			<path
   class="st0"
   d="m 41.2,32.1 c 0.2,0 0.3,-0.1 0.3,-0.3 0,-0.2 -0.1,-0.3 -0.3,-0.3 -0.2,0 -0.3,0.1 -0.3,0.3 0,0.1 0.1,0.3 0.3,0.3 z"
   id="path30"
   style="fill:#ae8b53;fill-opacity:1" />
			<path
   class="st0"
   d="m 40.5,32.5 c -0.2,0 -0.3,0.1 -0.3,0.3 0,0.2 0.1,0.3 0.3,0.3 0.2,0 0.3,-0.1 0.3,-0.3 0,-0.2 -0.1,-0.3 -0.3,-0.3 z"
   id="path32"
   style="fill:#ae8b53;fill-opacity:1" />
			<path
   class="st0"
   d="m 41.8,32.5 c -0.2,0 -0.3,0.1 -0.3,0.3 0,0.2 0.1,0.3 0.3,0.3 0.2,0 0.3,-0.1 0.3,-0.3 0,-0.2 -0.1,-0.3 -0.3,-0.3 z"
   id="path34"
   style="fill:#ae8b53;fill-opacity:1" />
			<path
   class="st0"
   d="m 46.5,32.5 h -2.9 c -0.1,-0.3 -0.2,-0.5 -0.4,-0.8 0,-0.4 -0.2,-0.8 -0.5,-1.1 -0.3,-0.3 -0.6,-0.5 -1,-0.5 -0.3,-0.3 -0.7,-0.5 -1.1,-0.5 -0.4,0 -0.8,0.1 -1.1,0.4 -0.4,0 -0.8,0.2 -1.1,0.5 -0.3,0.3 -0.5,0.6 -0.5,1 -0.2,0.3 -0.4,0.6 -0.4,0.9 h -2.2 c -0.5,0 -0.8,0.4 -0.8,0.8 0,0.1 0,0.1 0.1,0.1 h 3.1 c 0.1,0.1 0.1,0.3 0.3,0.4 0,0.4 0.2,0.8 0.5,1.1 0.3,0.3 0.7,0.5 1,0.5 0.2,0.2 0.5,0.4 0.8,0.4 v 1.6 h -1.1 c -0.3,0 -0.5,0.2 -0.5,0.5 V 38 H 42 c 0.3,0 0.5,-0.2 0.5,-0.5 v -0.2 h -1.6 v -1.7 c 0.2,-0.1 0.5,-0.2 0.7,-0.3 0.4,0 0.8,-0.2 1.1,-0.5 0.3,-0.3 0.5,-0.6 0.5,-1 0.1,-0.2 0.3,-0.3 0.3,-0.5 h 2.2 c 0.5,0 0.8,-0.4 0.8,-0.8 0.1,0.1 0,0 0,0 z m -4,1 -0.1,0.1 v 0.2 c 0,0.2 -0.1,0.5 -0.3,0.7 -0.2,0.2 -0.4,0.3 -0.6,0.3 0,0 0,0 -0.1,0 h -0.2 l -0.1,0.1 c -0.2,0.2 -0.4,0.3 -0.7,0.3 -0.3,0 -0.5,-0.1 -0.7,-0.3 l -0.1,-0.1 h -0.2 c 0,0 0,0 0,0 -0.2,0 -0.5,-0.1 -0.6,-0.3 -0.2,-0.2 -0.3,-0.4 -0.3,-0.6 0,0 0,0 0,-0.1 v -0.2 l -0.1,-0.1 c -0.2,-0.2 -0.3,-0.4 -0.3,-0.7 0,-0.3 0.1,-0.5 0.3,-0.7 L 38.5,32 v -0.2 c 0,-0.2 0.1,-0.5 0.3,-0.7 0.2,-0.2 0.4,-0.3 0.7,-0.3 h 0.2 l 0.1,-0.1 c 0.2,-0.2 0.4,-0.3 0.7,-0.3 0.3,0 0.5,0.1 0.7,0.3 l 0.1,0.1 h 0.2 c 0.2,0 0.5,0.1 0.7,0.3 0.2,0.2 0.3,0.4 0.3,0.7 V 32 l 0.1,0.1 c 0.2,0.2 0.3,0.4 0.3,0.7 0,0.3 -0.2,0.6 -0.4,0.7 z"
   id="path36"
   style="fill:#ae8b53;fill-opacity:1" />
		</g>
		<path
   class="st0"
   d="m 67,53.4 h -0.3 c 0,-0.1 -0.1,-0.3 -0.2,-0.4 l -0.1,-0.1 c 0,0 0,-0.1 0,-0.1 l -0.2,-6.1 c 0,-0.1 -0.1,-0.2 -0.2,-0.2 h -1.3 c -0.1,0 -0.2,0.1 -0.2,0.2 l -0.2,6 v 0 c 0,0 0,0.1 0,0.1 L 64.1,53 c 0,0 0,0 0,0.1 v 0 C 64,53.2 64,53.3 64,53.4 c 0,0.1 0,0.2 0,0.2 v 1.1 c 0,0 0,0.1 -0.1,0.1 h -0.8 c 0,0 -0.1,0 -0.1,-0.1 v -1.1 c 0,-0.1 0,-0.2 0,-0.2 0,-0.1 -0.1,-0.2 -0.1,-0.3 0,0 0,0 0,0 0,0 0,0 0,-0.1 l -0.1,-0.1 c 0,0 0,-0.1 0,-0.1 l -0.2,-6 c 0,-0.1 -0.1,-0.2 -0.2,-0.2 h -1.3 c -0.1,0 -0.2,0.1 -0.2,0.2 l -0.2,6 c 0,0 0,0.1 0,0.1 L 60.3,53 c 0,0 0,0 0,0.1 0,0 0,0 0,0 -0.1,0.1 -0.1,0.2 -0.1,0.3 0,0.1 0,0.2 0,0.2 v 0.5 0 0.5 c 0,0 0,0 0,0 0,0 0,0 -0.1,0 h -0.8 c 0,0 -0.1,0 -0.1,0 0,0 0,0 0,0 v -0.5 0 -0.6 c 0,-0.1 0,-0.2 0,-0.2 0,-0.1 -0.1,-0.2 -0.1,-0.3 0,0 0,0 0,0 0,0 0,0 0,-0.1 L 59,52.8 c 0,0 0,-0.1 0,-0.1 l -0.2,-6 c 0,-0.1 -0.1,-0.2 -0.2,-0.2 h -1.3 c -0.1,0 -0.2,0.1 -0.2,0.2 l -0.2,6 c 0,0 0,0.1 0,0.1 L 56.5,53 c 0,0 0,0 0,0.1 0,0 0,0 0,0 -0.1,0.1 -0.1,0.2 -0.1,0.3 0,0.1 0,0.2 0,0.2 v 1.1 c 0,0 0,0.1 -0.1,0.1 h -0.8 c 0,0 -0.1,0 -0.1,-0.1 v -1.1 c 0,-0.1 0,-0.2 0,-0.2 0,-0.1 -0.1,-0.2 -0.1,-0.3 v 0 c 0,0 0,0 0,-0.1 L 55,52.9 c 0,0 0,-0.1 0,-0.1 l -0.2,-6.1 c 0,-0.1 -0.1,-0.2 -0.2,-0.2 h -1.3 c -0.1,0 -0.2,0.1 -0.2,0.2 l -0.2,6.1 c 0,0 0,0.1 0,0.1 L 52.7,53 c -0.1,0.1 -0.2,0.2 -0.2,0.4 h -0.3 c -0.1,0 -0.2,0.1 -0.2,0.2 v 0.5 l 0.5,0.3 v 5 H 65 c 1,0 1.8,-0.8 1.8,-1.8 v -3.2 l 0.5,-0.3 v -0.5 c 0,-0.1 -0.1,-0.2 -0.3,-0.2 z m -6,-0.1 c 0.1,-0.2 0.2,-0.4 0.2,-0.6 l 0.2,-5.5 h 0.2 l 0.2,5.5 c 0,0.2 0.1,0.4 0.2,0.6 l 0.1,0.1 h -1.2 z m -3.8,0 c 0.1,-0.2 0.2,-0.4 0.2,-0.6 l 0.2,-5.5 h 0.2 l 0.2,5.5 c 0,0.2 0.1,0.4 0.2,0.6 l 0.1,0.1 h -1.2 z m -3.8,0 c 0.1,-0.2 0.2,-0.3 0.2,-0.5 l 0.2,-5.5 h 0.3 l 0.2,5.5 c 0,0.2 0.1,0.4 0.2,0.5 l 0.1,0.2 h -1.3 z m 12.5,3.9 c 0,0.7 -0.5,1.2 -1.2,1.2 h -7.9 v -1.2 c 0,-0.4 -0.2,-0.7 -0.5,-0.9 -0.3,-0.2 -0.7,-0.2 -1,0 -0.3,0.2 -0.5,0.5 -0.5,0.9 v 1.2 h -1.5 v -4.3 h 1.2 v 0.6 c 0,0.4 0.4,0.8 0.8,0.8 h 1 c 0.4,0 0.8,-0.4 0.8,-0.8 v -0.6 h 1.2 v 0.6 c 0,0.4 0.4,0.8 0.8,0.8 h 1 c 0.4,0 0.8,-0.4 0.8,-0.8 v -0.6 h 1.2 v 0.6 c 0,0.4 0.4,0.8 0.8,0.8 h 1 c 0.1,0 0.1,0 0.2,0 0.4,-0.1 0.6,-0.4 0.6,-0.8 v -0.6 h 1.2 z m -1.2,-3.7 0.1,-0.2 C 64.9,53.1 65,53 65,52.8 l 0.2,-5.5 h 0.3 l 0.2,5.5 c 0,0.2 0.1,0.4 0.2,0.5 l 0.1,0.2 z"
   id="path40"
   style="fill:#ae8b53;fill-opacity:1" />
		<g
   id="g50"
   style="fill:#ae8b53;fill-opacity:1">
			<path
   class="st0"
   d="m 43.1,57 c -0.4,0 -0.8,0.3 -0.8,0.8 v 1.6 h 1.5 V 57.8 C 43.9,57.3 43.5,57 43.1,57 Z"
   id="path42"
   style="fill:#ae8b53;fill-opacity:1" />
			<path
   class="st0"
   d="M 47,53.9 H 46.7 V 53 c 0,-0.3 -0.2,-0.5 -0.5,-0.5 h -1.4 v -0.8 c 0,-0.3 -0.2,-0.5 -0.5,-0.5 h -2.4 c -0.3,0 -0.5,0.2 -0.5,0.5 v 0.8 H 40 c -0.3,0 -0.5,0.2 -0.5,0.5 v 0.9 h -0.3 c -0.3,0 -0.5,0.2 -0.5,0.5 v 0.8 c 0,0.3 -0.3,0.6 -0.6,0.6 H 38 c -0.4,0 -0.7,-0.3 -0.7,-0.7 v -0.4 c 0,-0.3 -0.2,-0.5 -0.5,-0.5 h -1.5 c -0.3,0 -0.5,0.2 -0.5,0.5 V 55 c 0,0.4 -0.3,0.7 -0.7,0.7 h -0.9 v 0.6 c 0,1.6 1.3,3 3,3 h 3.7 1 v -1.5 c 0,-1.2 1,-2.2 2.2,-2.2 1.2,0 2.2,1 2.2,2.2 v 1.5 h 2.2 v -4.9 c 0,-0.3 -0.2,-0.5 -0.5,-0.5 z m -0.8,4.5 v -0.7 c 0,-1.7 -1.4,-3.1 -3.1,-3.1 -1.7,0 -3.1,1.4 -3.1,3.1 v 0.7 h -3.9 c -1.1,0 -2,-0.8 -2.1,-1.8 0.8,0 1.5,-0.7 1.5,-1.5 h 0.8 c 0,0.9 0.7,1.5 1.6,1.5 h 0.2 c 0.8,0 1.5,-0.7 1.5,-1.4 V 54.8 H 40 c 0.2,0 0.5,-0.2 0.5,-0.5 v -0.9 h 1.4 c 0.3,0 0.5,-0.2 0.5,-0.5 V 52 H 44 v 0.8 c 0,0.3 0.2,0.5 0.5,0.5 h 1.4 v 0.9 c 0,0.2 0.2,0.5 0.5,0.5 h 0.4 v 3.7 z"
   id="path44"
   style="fill:#ae8b53;fill-opacity:1" />
			<path
   class="st0"
   d="m 41.9,46.5 c -0.2,0 -0.5,0.2 -0.5,0.5 v 1.7 c -1.1,0.2 -1.9,1.1 -1.9,2.3 v 0.9 c 0.5,0 0.9,-0.4 0.9,-0.9 v 0 c 0,-0.8 0.6,-1.4 1.4,-1.4 0.2,0 0.5,-0.2 0.5,-0.5 v -1.7 h 0.8 0.8 V 49 c 0,0.2 0.2,0.5 0.5,0.5 0.8,0 1.4,0.6 1.4,1.4 v 0 c 0,0.5 0.4,0.9 0.9,0.9 v -0.9 c 0,-1.1 -0.8,-2.1 -1.9,-2.3 v -1.7 c 0,-0.2 -0.2,-0.5 -0.5,-0.5 h -0.8 v -0.6 h 0.7 V 45 H 43.5 V 44.3 H 42.6 V 45 H 42 v 0.9 h 0.7 v 0.6 z"
   id="path46"
   style="fill:#ae8b53;fill-opacity:1" />
			<path
   class="st0"
   d="m 33.6,46.5 v 2.9 h -0.1 c -0.2,0.1 -0.3,0.2 -0.3,0.4 v 3.6 c 0.5,0 0.9,-0.4 0.9,-0.9 V 50.2 H 38 v 2.3 c 0,0.5 0.4,0.9 0.9,0.9 v -3.6 c 0,-0.2 -0.1,-0.4 -0.3,-0.4 h -0.1 v -2.9 l 0.4,-0.1 v -2 h -2.3 v 0.4 c 0,0.3 -0.2,0.5 -0.5,0.5 v 0 c -0.3,0 -0.5,-0.2 -0.5,-0.5 v -0.4 h -2.3 v 2 z m 0.5,-1.3 h 0.8 c 0,0.3 0.3,0.6 0.6,0.6 h 0.5 0.5 c 0.3,0 0.6,-0.3 0.6,-0.6 H 38 v 0.5 h -0.1 c -0.2,0.1 -0.3,0.2 -0.3,0.4 v 3.2 h -3.1 v -3.2 c 0,-0.2 -0.1,-0.4 -0.3,-0.4 h -0.1 z"
   id="path48"
   style="fill:#ae8b53;fill-opacity:1" />
		</g>
	</g>
	<g
   id="g112"
   style="fill:#ae8b53;fill-opacity:1">
		<g
   id="g64"
   style="fill:#ae8b53;fill-opacity:1">
			<path
   class="st0"
   d="m 19.4,84.9 h -0.5 c -0.1,0 -0.2,0.1 -0.2,0.3 l 0.7,1.3 v 0 7.2 L 12,84.9 H 8.2 C 8.1,84.9 8,85 8,85.2 l 0.7,1.3 V 99 h 3.5 v -8.8 l 7.4,8.8 h 3.3 V 84.9 Z"
   id="path54"
   style="fill:#ae8b53;fill-opacity:1" />
			<path
   class="st0"
   d="m 37,91.4 v -5.1 l -0.7,-1.1 c -0.1,-0.1 0.1,-0.3 0.2,-0.3 h 4.1 v 6.5 c 0,4.8 -2.7,7.7 -7.3,7.7 -4.6,0 -7.3,-2.9 -7.3,-7.7 v -5.1 l -0.7,-1.1 c -0.1,-0.1 0.1,-0.3 0.2,-0.3 h 4.1 v 6.5 c 0,3.1 1.1,4.4 3.7,4.4 2.6,0 3.7,-1.3 3.7,-4.4 z"
   id="path56"
   style="fill:#ae8b53;fill-opacity:1" />
			<path
   class="st0"
   d="M 43.7,99 V 86.4 L 43,85.2 c 0,-0.1 0.1,-0.3 0.2,-0.3 h 13 v 1.6 1.7 h -8.8 v 2.1 h 6.2 v 3.2 h -6.2 v 2.4 h 9.1 V 99 Z"
   id="path58"
   style="fill:#ae8b53;fill-opacity:1" />
			<path
   class="st0"
   d="M 70.1,84.9 66.3,95.4 62.5,84.9 h -4.6 c -0.2,0 -0.3,0.2 -0.2,0.3 l 1.1,1.2 4.2,11 V 99 h 3.3 3.3 v -1.6 l 4.2,-11 1.1,-1.2 c 0.1,-0.1 0,-0.3 -0.2,-0.3 z"
   id="path60"
   style="fill:#ae8b53;fill-opacity:1" />
			<path
   class="st0"
   d="m 92,92 c 0,4.5 -3.6,7.3 -8.6,7.3 -5,0 -8.6,-2.8 -8.6,-7.3 0,-4.5 3.6,-7.3 8.6,-7.3 5,0 8.6,2.8 8.6,7.3 z m -8.6,-4 c -3.2,0 -4.8,1 -4.8,4 0,2.9 1.6,4 4.8,4 3.2,0 4.8,-1 4.8,-4 0,-3 -1.6,-4 -4.8,-4 z"
   id="path62"
   style="fill:#ae8b53;fill-opacity:1" />
		</g>
		<path
   class="st0"
   d="m 12.9,103.6 h 1.4 v 5.6 H 13 l -2.9,-3.5 v 3.5 H 8.7 v -5.6 H 10 l 2.9,3.5 z"
   id="path66"
   style="fill:#ae8b53;fill-opacity:1" />
		<path
   class="st0"
   d="m 22.1,106.2 v -2.6 h 1.4 v 2.6 c 0,1.9 -1.1,3 -2.9,3 -1.8,0 -2.9,-1.1 -2.9,-3 v -2.6 h 1.4 v 2.6 c 0,1.2 0.4,1.7 1.4,1.7 1.2,0 1.6,-0.5 1.6,-1.7 z"
   id="path68"
   style="fill:#ae8b53;fill-opacity:1" />
		<path
   class="st0"
   d="m 28.5,107.9 h 3.6 v 1.3 h -5 v -5.6 H 32 v 1.3 h -3.5 v 0.8 h 2.8 v 1.3 h -2.8 z"
   id="path70"
   style="fill:#ae8b53;fill-opacity:1" />
		<path
   class="st0"
   d="m 39.6,103.6 h 1.6 l -2,5.6 h -2.1 l -2,-5.6 h 1.6 l 1.5,4.1 z"
   id="path72"
   style="fill:#ae8b53;fill-opacity:1" />
		<path
   class="st0"
   d="m 50.6,106.4 c 0,1.8 -1.4,2.9 -3.4,2.9 -2,0 -3.4,-1.1 -3.4,-2.9 0,-1.8 1.4,-2.9 3.4,-2.9 2,0 3.4,1.2 3.4,2.9 z m -3.4,-1.5 c -1.3,0 -1.9,0.4 -1.9,1.6 0,1.2 0.6,1.6 1.9,1.6 1.3,0 1.9,-0.4 1.9,-1.6 0,-1.2 -0.6,-1.6 -1.9,-1.6 z"
   id="path74"
   style="fill:#ae8b53;fill-opacity:1" />
		<path
   class="st0"
   d="M 60.9,107.9 H 64 v 1.3 h -4.6 v -5.6 h 1.4 v 4.3 z"
   id="path76"
   style="fill:#ae8b53;fill-opacity:1" />
		<path
   class="st0"
   d="m 68.7,107.9 h 3.6 v 1.3 h -5 v -5.6 h 4.9 v 1.3 h -3.5 v 0.8 h 2.8 v 1.3 h -2.8 z"
   id="path78"
   style="fill:#ae8b53;fill-opacity:1" />
		<path
   class="st0"
   d="m 82.1,106.4 c 0,1.8 -1.4,2.9 -3.4,2.9 -2,0 -3.4,-1.1 -3.4,-2.9 0,-1.8 1.4,-2.9 3.4,-2.9 1.9,0.1 3.4,1.2 3.4,2.9 z m -1.5,0 c 0,-1.2 -0.6,-1.6 -1.9,-1.6 -1.3,0 -1.9,0.4 -1.9,1.6 0,1.2 0.6,1.6 1.9,1.6 1.3,0 1.9,-0.4 1.9,-1.6 z m -1.9,-4.9 h -1.2 c -0.2,0 -0.4,0.1 -0.5,0.3 l -0.4,0.8 h 2 1.2 c 0.2,0 0.4,-0.1 0.5,-0.3 l 0.4,-0.8 z"
   id="path80"
   style="fill:#ae8b53;fill-opacity:1" />
		<path
   class="st0"
   d="M 89.6,103.6 H 91 v 5.6 h -1.3 l -2.9,-3.5 v 3.5 h -1.4 v -5.6 h 1.3 l 2.9,3.5 z"
   id="path82"
   style="fill:#ae8b53;fill-opacity:1" />
		<g
   id="g110"
   style="fill:#ae8b53;fill-opacity:1">
			<path
   class="st0"
   d="m 17.6,79.8 h 2.5 v 0.9 h -3.6 v -4 H 20 v 0.9 h -2.5 v 0.6 h 2 v 0.9 h -2 v 0.7 z"
   id="path84"
   style="fill:#ae8b53;fill-opacity:1" />
			<path
   class="st0"
   d="m 22.3,79.8 h 2.2 v 0.9 h -3.3 v -4 h 1 v 3.1 z"
   id="path86"
   style="fill:#ae8b53;fill-opacity:1" />
			<path
   class="st0"
   d="m 30.5,78.5 h 2.3 v 2.2 h -1 v -0.3 c -0.4,0.2 -0.9,0.4 -1.4,0.4 -1.4,0 -2.4,-0.8 -2.4,-2 0,-1.2 1,-2 2.4,-2 1.5,0 2.2,0.7 2.2,0.7 L 31.9,78 c 0,0 -0.4,-0.4 -1.5,-0.4 -0.9,0 -1.3,0.3 -1.3,1.1 0,0.8 0.4,1.1 1.3,1.1 0.5,0 0.9,-0.1 1.1,-0.4 h -1 z"
   id="path88"
   style="fill:#ae8b53;fill-opacity:1" />
			<path
   class="st0"
   d="m 38.6,78.7 c 0,1.2 -1,2 -2.4,2 -1.4,0 -2.4,-0.8 -2.4,-2 0,-1.2 1,-2 2.4,-2 1.4,-0.1 2.4,0.7 2.4,2 z m -2.4,-1.1 c -0.9,0 -1.3,0.3 -1.3,1.1 0,0.8 0.4,1.1 1.3,1.1 0.9,0 1.3,-0.3 1.3,-1.1 0.1,-0.8 -0.4,-1.1 -1.3,-1.1 z"
   id="path90"
   style="fill:#ae8b53;fill-opacity:1" />
			<path
   class="st0"
   d="m 43.5,79.6 c 0,0.8 -0.5,1.1 -1.5,1.1 h -2.3 v -4 h 2 c 1,0 1.5,0.4 1.5,1.1 0,0.3 -0.1,0.6 -0.3,0.7 0.5,0.3 0.6,0.7 0.6,1.1 z m -1.3,-1.7 c 0,-0.2 -0.1,-0.3 -0.5,-0.3 h -1 v 0.6 h 1 c 0.5,0 0.5,-0.1 0.5,-0.3 z m -1.5,1.9 H 42 c 0.3,0 0.4,-0.1 0.4,-0.3 0,-0.2 -0.1,-0.3 -0.7,-0.3 h -1 z"
   id="path92"
   style="fill:#ae8b53;fill-opacity:1" />
			<path
   class="st0"
   d="m 44.6,80.7 v -4 h 1 v 4 z"
   id="path94"
   style="fill:#ae8b53;fill-opacity:1" />
			<path
   class="st0"
   d="m 48,79.8 h 2.5 v 0.9 h -3.6 v -4 h 3.5 v 0.9 H 48 v 0.6 h 2 v 0.9 h -2 z"
   id="path96"
   style="fill:#ae8b53;fill-opacity:1" />
			<path
   class="st0"
   d="m 54.7,79.5 0.8,1.1 h -1.2 l -0.7,-1 h -0.9 v 1 h -1 v -4 h 2.5 c 1.2,0 1.5,0.9 1.5,1.4 -0.1,0.7 -0.3,1.3 -1,1.5 z m -0.6,-1.9 h -1.4 v 1.1 h 1.5 c 0.5,0 0.5,-0.5 0.5,-0.5 -0.1,-0.2 -0.1,-0.6 -0.6,-0.6 z"
   id="path98"
   style="fill:#ae8b53;fill-opacity:1" />
			<path
   class="st0"
   d="m 59.7,76.7 h 1 v 4 h -0.9 l -2.1,-2.5 v 2.5 h -1 v -4 h 0.9 l 2.1,2.5 z"
   id="path100"
   style="fill:#ae8b53;fill-opacity:1" />
			<path
   class="st0"
   d="m 66.6,78.7 c 0,1.2 -1,2 -2.4,2 -1.4,0 -2.4,-0.8 -2.4,-2 0,-1.2 1,-2 2.4,-2 1.4,-0.1 2.4,0.7 2.4,2 z m -2.4,-1.1 c -0.9,0 -1.3,0.3 -1.3,1.1 0,0.8 0.4,1.1 1.3,1.1 0.9,0 1.3,-0.3 1.3,-1.1 0,-0.8 -0.4,-1.1 -1.3,-1.1 z"
   id="path102"
   style="fill:#ae8b53;fill-opacity:1" />
			<path
   class="st0"
   d="m 74.3,78.7 c 0,1.3 -0.7,2 -1.8,2 h -2.2 v -4 h 2.2 c 1.1,0 1.8,0.7 1.8,2 z m -1.8,-1.1 h -1.1 v 2.2 h 1.1 c 0.4,0 0.7,0 0.7,-1.1 0,-1.1 -0.3,-1.1 -0.7,-1.1 z"
   id="path104"
   style="fill:#ae8b53;fill-opacity:1" />
			<path
   class="st0"
   d="M 76.4,79.8 H 79 v 0.9 h -3.6 v -4 h 3.5 v 0.9 h -2.5 v 0.6 h 2 v 0.9 h -2 z"
   id="path106"
   style="fill:#ae8b53;fill-opacity:1" />
			<path
   class="st0"
   d="m 81.1,79.8 h 2.2 v 0.9 H 80 v -4 h 1 v 3.1 z"
   id="path108"
   style="fill:#ae8b53;fill-opacity:1" />
		</g>
	</g>
</g>
</svg>
